<svg xmlns="http://www.w3.org/2000/svg" viewBox="0 0 1200 320" preserveAspectRatio="xMidYMax slice">
  <defs>
    <linearGradient id="bergen-sky" x1="0" y1="0" x2="0" y2="1">
      <stop offset="0%" stop-color="#0a1f33"/>
      <stop offset="100%" stop-color="#0a233a"/>
    </linearGradient>
  </defs>
  <rect width="1200" height="320" fill="url(#bergen-sky)"/>
  <g fill="none" stroke="#0f2f4e" stroke-width="2" opacity="0.5">
    <path d="M0 260 L80 240 L160 260"/>
    <path d="M160 260 L220 210 L280 260"/>
    <path d="M280 260 L320 230 L360 260"/>
    <path d="M360 260 L400 220 L420 240 L440 230 L460 260"/>
    <path d="M460 260 L520 180 L520 120 L540 120 L540 180 L580 260"/>
    <path d="M580 260 L640 210 L700 260"/>
    <path d="M700 260 L760 200 L780 140 L820 260"/>
    <path d="M820 260 L880 210 L920 260"/>
    <path d="M920 260 L1000 220 L1040 260"/>
    <path d="M1040 260 L1120 230 L1200 260"/>
  </g>
  <g fill="#132f4c">
    <path d="M0 260 L80 240 L160 260 L0 260"/>
    <path d="M160 260 L220 210 L280 260 L160 260"/>
    <path d="M280 260 L320 230 L360 260 L280 260"/>
    <path d="M360 260 L400 220 L420 240 L440 230 L460 260 Z"/>
    <path d="M460 260 L520 180 L520 120 L540 120 L540 180 L580 260 Z"/>
    <path d="M580 260 L640 210 L700 260 L580 260"/>
    <path d="M700 260 L760 200 L780 140 L820 260 Z"/>
    <path d="M820 260 L880 210 L920 260 L820 260"/>
    <path d="M920 260 L1000 220 L1040 260 L920 260"/>
    <path d="M1040 260 L1120 230 L1200 260 L1040 260"/>
  </g>
  <g fill="#1a4063">
    <circle cx="520" cy="105" r="18"/>
    <rect x="330" y="210" width="18" height="50" rx="4"/>
    <rect x="335" y="195" width="8" height="20"/>
    <rect x="750" y="180" width="20" height="80" rx="6"/>
    <path d="M200 220 Q210 200 220 220 Z"/>
    <path d="M880 210 Q890 190 900 210 Z"/>
  </g>
  <rect y="260" width="1200" height="60" fill="#0a233a"/>
</svg>
