<svg xmlns="http://www.w3.org/2000/svg" viewBox="0 0 256 256">
  <defs>
    <linearGradient id="bg" x1="0%" y1="0%" x2="100%" y2="100%">
      <stop offset="0%" stop-color="#201B16"/>
      <stop offset="100%" stop-color="#32271f"/>
    </linearGradient>
  </defs>
  <rect width="256" height="256" rx="56" fill="url(#bg)"/>
  <path fill="#DC9158" d="M176.3 190.6c0 24.8-23.5 42.2-61 42.2-30.1 0-54.7-10.9-68.6-29.6l25.1-13.8c8.8 12.7 24 20 43.9 20 23.3 0 34.5-9.3 34.5-20.4 0-11.1-7.2-17.2-35.5-20.5-40.2-4.6-60.6-18.1-60.6-45.9 0-30.4 26.8-48.9 64-48.9 26.5 0 48.7 9.4 63 24.9l-24.3 14.8c-8.5-9.7-22.3-16-38.2-16-21.5 0-33.2 8.4-33.2 20.5 0 10.6 7.9 17.4 34.1 20.6 41.5 5.1 61 18.4 61 52.1z"/>
</svg>
